<svg id="my-svg" width="100%" xmlns="http://www.w3.org/2000/svg" xmlns:xlink="http://www.w3.org/1999/xlink" class="classDiagram" style="max-width: 853.227px; background-color: white;" viewBox="0 0 853.2265625 208" role="graphics-document document" aria-roledescription="class"><style>#my-svg{font-family:"trebuchet ms",verdana,arial,sans-serif;font-size:16px;fill:#333;}@keyframes edge-animation-frame{from{stroke-dashoffset:0;}}@keyframes dash{to{stroke-dashoffset:0;}}#my-svg .edge-animation-slow{stroke-dasharray:9,5!important;stroke-dashoffset:900;animation:dash 50s linear infinite;stroke-linecap:round;}#my-svg .edge-animation-fast{stroke-dasharray:9,5!important;stroke-dashoffset:900;animation:dash 20s linear infinite;stroke-linecap:round;}#my-svg .error-icon{fill:#552222;}#my-svg .error-text{fill:#552222;stroke:#552222;}#my-svg .edge-thickness-normal{stroke-width:1px;}#my-svg .edge-thickness-thick{stroke-width:3.5px;}#my-svg .edge-pattern-solid{stroke-dasharray:0;}#my-svg .edge-thickness-invisible{stroke-width:0;fill:none;}#my-svg .edge-pattern-dashed{stroke-dasharray:3;}#my-svg .edge-pattern-dotted{stroke-dasharray:2;}#my-svg .marker{fill:#333333;stroke:#333333;}#my-svg .marker.cross{stroke:#333333;}#my-svg svg{font-family:"trebuchet ms",verdana,arial,sans-serif;font-size:16px;}#my-svg p{margin:0;}#my-svg g.classGroup text{fill:#9370DB;stroke:none;font-family:"trebuchet ms",verdana,arial,sans-serif;font-size:10px;}#my-svg g.classGroup text .title{font-weight:bolder;}#my-svg .cluster-label text{fill:#333;}#my-svg .cluster-label span{color:#333;}#my-svg .cluster-label span p{background-color:transparent;}#my-svg .cluster rect{fill:#ffffde;stroke:#aaaa33;stroke-width:1px;}#my-svg .cluster text{fill:#333;}#my-svg .cluster span{color:#333;}#my-svg .nodeLabel,#my-svg .edgeLabel{color:#131300;}#my-svg .noteLabel .nodeLabel,#my-svg .noteLabel .edgeLabel{color:black;}#my-svg .edgeLabel .label rect{fill:#ECECFF;}#my-svg .label text{fill:#131300;}#my-svg .labelBkg{background:#ECECFF;}#my-svg .edgeLabel .label span{background:#ECECFF;}#my-svg .classTitle{font-weight:bolder;}#my-svg .node rect,#my-svg .node circle,#my-svg .node ellipse,#my-svg .node polygon,#my-svg .node path{fill:#ECECFF;stroke:#9370DB;stroke-width:1;}#my-svg .divider{stroke:#9370DB;stroke-width:1;}#my-svg g.clickable{cursor:pointer;}#my-svg g.classGroup rect{fill:#ECECFF;stroke:#9370DB;}#my-svg g.classGroup line{stroke:#9370DB;stroke-width:1;}#my-svg .classLabel .box{stroke:none;stroke-width:0;fill:#ECECFF;opacity:0.5;}#my-svg .classLabel .label{fill:#9370DB;font-size:10px;}#my-svg .relation{stroke:#333333;stroke-width:1;fill:none;}#my-svg .dashed-line{stroke-dasharray:3;}#my-svg .dotted-line{stroke-dasharray:1 2;}#my-svg [id$="-compositionStart"],#my-svg .composition{fill:#333333!important;stroke:#333333!important;stroke-width:1;}#my-svg [id$="-compositionEnd"],#my-svg .composition{fill:#333333!important;stroke:#333333!important;stroke-width:1;}#my-svg [id$="-dependencyStart"],#my-svg .dependency{fill:#333333!important;stroke:#333333!important;stroke-width:1;}#my-svg [id$="-dependencyEnd"],#my-svg .dependency{fill:#333333!important;stroke:#333333!important;stroke-width:1;}#my-svg [id$="-extensionStart"],#my-svg .extension{fill:transparent!important;stroke:#333333!important;stroke-width:1;}#my-svg [id$="-extensionEnd"],#my-svg .extension{fill:transparent!important;stroke:#333333!important;stroke-width:1;}#my-svg [id$="-aggregationStart"],#my-svg .aggregation{fill:transparent!important;stroke:#333333!important;stroke-width:1;}#my-svg [id$="-aggregationEnd"],#my-svg .aggregation{fill:transparent!important;stroke:#333333!important;stroke-width:1;}#my-svg [id$="-lollipopStart"],#my-svg .lollipop{fill:#ECECFF!important;stroke:#333333!important;stroke-width:1;}#my-svg [id$="-lollipopEnd"],#my-svg .lollipop{fill:#ECECFF!important;stroke:#333333!important;stroke-width:1;}#my-svg .edgeTerminals{font-size:11px;line-height:initial;}#my-svg .classTitleText{text-anchor:middle;font-size:18px;fill:#333;}#my-svg .edgeLabel[data-look="neo"]{background-color:rgba(232,232,232, 0.8);text-align:center;}#my-svg .edgeLabel[data-look="neo"] p{background-color:rgba(232,232,232, 0.8);}#my-svg .edgeLabel[data-look="neo"] rect{opacity:0.5;background-color:rgba(232,232,232, 0.8);fill:rgba(232,232,232, 0.8);}#my-svg .label-icon{display:inline-block;height:1em;overflow:visible;vertical-align:-0.125em;}#my-svg .node .label-icon path{fill:currentColor;stroke:revert;stroke-width:revert;}#my-svg .node .neo-node{stroke:#9370DB;}#my-svg [data-look="neo"].node rect,#my-svg [data-look="neo"].cluster rect,#my-svg [data-look="neo"].node polygon{stroke:#9370DB;filter:drop-shadow(1px 2px 2px rgba(185, 185, 185, 1));}#my-svg [data-look="neo"].swimlane.cluster rect{filter:none;}#my-svg [data-look="neo"].node path{stroke:#9370DB;stroke-width:1px;}#my-svg [data-look="neo"].node .outer-path{filter:drop-shadow(1px 2px 2px rgba(185, 185, 185, 1));}#my-svg [data-look="neo"].node .neo-line path{stroke:#9370DB;filter:none;}#my-svg [data-look="neo"].node circle{stroke:#9370DB;filter:drop-shadow(1px 2px 2px rgba(185, 185, 185, 1));}#my-svg [data-look="neo"].node circle .state-start{fill:#000000;}#my-svg [data-look="neo"].icon-shape .icon{fill:#9370DB;filter:drop-shadow(1px 2px 2px rgba(185, 185, 185, 1));}#my-svg [data-look="neo"].icon-shape .icon-neo path{stroke:#9370DB;filter:drop-shadow(1px 2px 2px rgba(185, 185, 185, 1));}#my-svg :root{--mermaid-font-family:"trebuchet ms",verdana,arial,sans-serif;}</style><g><defs><marker id="my-svg_class-aggregationStart" class="marker aggregation class" refX="18" refY="7" markerWidth="190" markerHeight="240" orient="auto"><path d="M 18,7 L9,13 L1,7 L9,1 Z"/></marker></defs><defs><marker id="my-svg_class-aggregationEnd" class="marker aggregation class" refX="1" refY="7" markerWidth="20" markerHeight="28" orient="auto"><path d="M 18,7 L9,13 L1,7 L9,1 Z"/></marker></defs><defs><marker id="my-svg_class-aggregationStart-margin" class="marker aggregation class" refX="15" refY="7" markerWidth="190" markerHeight="240" orient="auto" markerUnits="userSpaceOnUse"><path d="M 18,7 L9,13 L1,7 L9,1 Z" style="stroke-width: 2;"/></marker></defs><defs><marker id="my-svg_class-aggregationEnd-margin" class="marker aggregation class" refX="1" refY="7" markerWidth="20" markerHeight="28" orient="auto" markerUnits="userSpaceOnUse"><path d="M 18,7 L9,13 L1,7 L9,1 Z" style="stroke-width: 2;"/></marker></defs><defs><marker id="my-svg_class-extensionStart" class="marker extension class" refX="18" refY="7" markerWidth="20" markerHeight="28" orient="auto" markerUnits="userSpaceOnUse"><path d="M 1,7 L18,13 V 1 Z"/></marker></defs><defs><marker id="my-svg_class-extensionEnd" class="marker extension class" refX="1" refY="7" markerWidth="20" markerHeight="28" orient="auto"><path d="M 1,1 V 13 L18,7 Z"/></marker></defs><marker id="my-svg_class-extensionStart-margin" class="marker extension class" refX="18" refY="7" markerWidth="20" markerHeight="28" orient="auto" markerUnits="userSpaceOnUse" viewBox="0 0 20 14"><polygon points="10,7 18,13 18,1" style="stroke-width: 2; stroke-dasharray: 0;"/></marker><defs><marker id="my-svg_class-extensionEnd-margin" class="marker extension class" refX="9" refY="7" markerWidth="20" markerHeight="28" orient="auto" markerUnits="userSpaceOnUse" viewBox="0 0 20 14"><polygon points="10,1 10,13 18,7" style="stroke-width: 2; stroke-dasharray: 0;"/></marker></defs><defs><marker id="my-svg_class-compositionStart" class="marker composition class" refX="18" refY="7" markerWidth="190" markerHeight="240" orient="auto"><path d="M 18,7 L9,13 L1,7 L9,1 Z"/></marker></defs><defs><marker id="my-svg_class-compositionEnd" class="marker composition class" refX="1" refY="7" markerWidth="20" markerHeight="28" orient="auto"><path d="M 18,7 L9,13 L1,7 L9,1 Z"/></marker></defs><defs><marker id="my-svg_class-compositionStart-margin" class="marker composition class" refX="15" refY="7" markerWidth="190" markerHeight="240" orient="auto" markerUnits="userSpaceOnUse"><path viewBox="0 0 15 15" d="M 18,7 L9,13 L1,7 L9,1 Z" style="stroke-width: 0;"/></marker></defs><defs><marker id="my-svg_class-compositionEnd-margin" class="marker composition class" refX="3.5" refY="7" markerWidth="20" markerHeight="28" orient="auto" markerUnits="userSpaceOnUse"><path d="M 18,7 L9,13 L1,7 L9,1 Z" style="stroke-width: 0;"/></marker></defs><defs><marker id="my-svg_class-dependencyStart" class="marker dependency class" refX="6" refY="7" markerWidth="190" markerHeight="240" orient="auto"><path d="M 5,7 L9,13 L1,7 L9,1 Z"/></marker></defs><defs><marker id="my-svg_class-dependencyEnd" class="marker dependency class" refX="13" refY="7" markerWidth="20" markerHeight="28" orient="auto"><path d="M 18,7 L9,13 L14,7 L9,1 Z"/></marker></defs><defs><marker id="my-svg_class-dependencyStart-margin" class="marker dependency class" refX="4" refY="7" markerWidth="190" markerHeight="240" orient="auto" markerUnits="userSpaceOnUse"><path d="M 5,7 L9,13 L1,7 L9,1 Z" style="stroke-width: 0;"/></marker></defs><defs><marker id="my-svg_class-dependencyEnd-margin" class="marker dependency class" refX="16" refY="7" markerWidth="20" markerHeight="28" orient="auto" markerUnits="userSpaceOnUse"><path d="M 18,7 L9,13 L14,7 L9,1 Z" style="stroke-width: 0;"/></marker></defs><defs><marker id="my-svg_class-lollipopStart" class="marker lollipop class" refX="13" refY="7" markerWidth="190" markerHeight="240" orient="auto"><circle fill="transparent" cx="7" cy="7" r="6"/></marker></defs><defs><marker id="my-svg_class-lollipopEnd" class="marker lollipop class" refX="1" refY="7" markerWidth="190" markerHeight="240" orient="auto"><circle fill="transparent" cx="7" cy="7" r="6"/></marker></defs><defs><marker id="my-svg_class-lollipopStart-margin" class="marker lollipop class" refX="13" refY="7" markerWidth="190" markerHeight="240" orient="auto" markerUnits="userSpaceOnUse"><circle fill="transparent" cx="7" cy="7" r="6" stroke-width="2"/></marker></defs><defs><marker id="my-svg_class-lollipopEnd-margin" class="marker lollipop class" refX="1" refY="7" markerWidth="190" markerHeight="240" orient="auto" markerUnits="userSpaceOnUse"><circle fill="transparent" cx="7" cy="7" r="6" stroke-width="2"/></marker></defs><g class="root"><g class="clusters"/><g class="edgePaths"><path d="M147.328,104L155.259,104C163.19,104,179.052,104,193.914,104C208.776,104,222.638,104,229.569,104L236.5,104" id="my-svg-id_Customer_Order_1" class="edge-thickness-normal edge-pattern-solid relation" style=";;;" data-edge="true" data-et="edge" data-id="id_Customer_Order_1" data-points="W3sieCI6MTQ3LjMyODEyNSwieSI6MTA0fSx7IngiOjE5NC45MTQwNjI1LCJ5IjoxMDR9LHsieCI6MjQyLjUsInkiOjEwNH1d" data-look="classic" marker-end="url(#my-svg_class-dependencyEnd)"/><path d="M377.406,104L384.94,104C392.474,104,407.542,104,425.484,104C443.427,104,464.245,104,474.654,104L485.063,104" id="my-svg-id_Order_OrderLine_2" class="edge-thickness-normal edge-pattern-solid relation" style=";;;" data-edge="true" data-et="edge" data-id="id_Order_OrderLine_2" data-points="W3sieCI6MzYwLjE1NjI1LCJ5IjoxMDR9LHsieCI6NDIyLjYwOTM3NSwieSI6MTA0fSx7IngiOjQ4NS4wNjI1LCJ5IjoxMDR9XQ==" data-look="classic" marker-start="url(#my-svg_class-compositionStart)"/><path d="M610.898,104L620.234,104C629.57,104,648.242,104,665.914,104C683.586,104,700.258,104,708.594,104L716.93,104" id="my-svg-id_OrderLine_Product_3" class="edge-thickness-normal edge-pattern-solid relation" style=";;;" data-edge="true" data-et="edge" data-id="id_OrderLine_Product_3" data-points="W3sieCI6NjEwLjg5ODQzNzUsInkiOjEwNH0seyJ4Ijo2NjYuOTE0MDYyNSwieSI6MTA0fSx7IngiOjcyMi45Mjk2ODc1LCJ5IjoxMDR9XQ==" data-look="classic" marker-end="url(#my-svg_class-dependencyEnd)"/></g><g class="edgeLabels"><g class="edgeLabel" transform="translate(194.9140625, 104)"><g class="label" data-id="id_Customer_Order_1" transform="translate(-22.5859375, -12)"><foreignObject width="45.171875" height="24"><div xmlns="http://www.w3.org/1999/xhtml" class="labelBkg" style="display: table-cell; white-space: nowrap; line-height: 1.5; max-width: 200px; text-align: center;"><span class="edgeLabel"><p>places</p></span></div></foreignObject></g></g><g class="edgeLabel" transform="translate(422.609375, 104)"><g class="label" data-id="id_Order_OrderLine_2" transform="translate(-37.453125, -12)"><foreignObject width="74.90625" height="24"><div xmlns="http://www.w3.org/1999/xhtml" class="labelBkg" style="display: table-cell; white-space: nowrap; line-height: 1.5; max-width: 200px; text-align: center;"><span class="edgeLabel"><p>consists of</p></span></div></foreignObject></g></g><g class="edgeLabel" transform="translate(666.9140625, 104)"><g class="label" data-id="id_OrderLine_Product_3" transform="translate(-31.015625, -12)"><foreignObject width="62.03125" height="24"><div xmlns="http://www.w3.org/1999/xhtml" class="labelBkg" style="display: table-cell; white-space: nowrap; line-height: 1.5; max-width: 200px; text-align: center;"><span class="edgeLabel"><p>refers to</p></span></div></foreignObject></g></g><g class="edgeTerminals" transform="translate(164.8281275, 119)"><g class="inner" transform="translate(-2.890625, -8.25)"><foreignObject width="5.78125" height="16.5" style="width: 9px; height: 12px;"><div xmlns="http://www.w3.org/1999/xhtml" style="display: table-cell; white-space: nowrap; line-height: 1.5;"><span class="edgeLabel"><p>1</p></span></div></foreignObject></g></g><g class="edgeTerminals" transform="translate(377.65625, 119)"><g class="inner" transform="translate(-2.890625, -8.25)"><foreignObject width="5.78125" height="16.5" style="width: 9px; height: 12px;"><div xmlns="http://www.w3.org/1999/xhtml" style="display: table-cell; white-space: nowrap; line-height: 1.5;"><span class="edgeLabel"><p>1</p></span></div></foreignObject></g></g><g class="edgeTerminals" transform="translate(628.39843875, 119)"><g class="inner" transform="translate(-8.9453125, -8.25)"><foreignObject width="17.890625" height="16.5" style="width: 36px; height: 12px;"><div xmlns="http://www.w3.org/1999/xhtml" style="display: table-cell; white-space: nowrap; line-height: 1.5;"><span class="edgeLabel"><p>0..*</p></span></div></foreignObject></g></g><g class="edgeTerminals" transform="translate(220, 84)"><g class="inner" transform="translate(-8.9453125, -8.25)"/><foreignObject width="17.890625" height="16.5" style="width: 36px; height: 12px;"><div xmlns="http://www.w3.org/1999/xhtml" style="display: table-cell; white-space: nowrap; line-height: 1.5;"><span class="edgeLabel"><p>0..*</p></span></div></foreignObject></g><g class="edgeTerminals" transform="translate(462.5625, 84)"><g class="inner" transform="translate(-8.9453125, -8.25)"/><foreignObject width="17.890625" height="16.5" style="width: 36px; height: 12px;"><div xmlns="http://www.w3.org/1999/xhtml" style="display: table-cell; white-space: nowrap; line-height: 1.5;"><span class="edgeLabel"><p>1..*</p></span></div></foreignObject></g><g class="edgeTerminals" transform="translate(700.42968875, 84)"><g class="inner" transform="translate(-2.890625, -8.25)"/><foreignObject width="5.78125" height="16.5" style="width: 9px; height: 12px;"><div xmlns="http://www.w3.org/1999/xhtml" style="display: table-cell; white-space: nowrap; line-height: 1.5;"><span class="edgeLabel"><p>1</p></span></div></foreignObject></g></g><g class="nodes"><g class="node default" id="my-svg-classId-Customer-0" data-look="classic" transform="translate(77.6640625, 104)"><g class="basic label-container outer-path"><path d="M-69.6640625 -96 L69.6640625 -96 L69.6640625 96 L-69.6640625 96" stroke="none" stroke-width="0" fill="#ECECFF" style=""/><path d="M-69.6640625 -96 C-38.07785061211355 -96, -6.491638724227094 -96, 69.6640625 -96 M-69.6640625 -96 C-17.893891026351312 -96, 33.876280447297376 -96, 69.6640625 -96 M69.6640625 -96 C69.6640625 -50.95521468267542, 69.6640625 -5.910429365350836, 69.6640625 96 M69.6640625 -96 C69.6640625 -42.746991092852966, 69.6640625 10.506017814294069, 69.6640625 96 M69.6640625 96 C16.714780311401128 96, -36.234501877197744 96, -69.6640625 96 M69.6640625 96 C28.1613450662795 96, -13.341372367440997 96, -69.6640625 96 M-69.6640625 96 C-69.6640625 30.70311252713347, -69.6640625 -34.59377494573306, -69.6640625 -96 M-69.6640625 96 C-69.6640625 53.05602676624808, -69.6640625 10.112053532496162, -69.6640625 -96" stroke="#9370DB" stroke-width="1.3" fill="none" stroke-dasharray="0 0" style=""/></g><g class="annotation-group text" transform="translate(0, -72)"/><g class="label-group text" transform="translate(-35.65625, -72)"><g class="label" style="font-weight: bolder" transform="translate(0,-12)"><foreignObject width="71.3125" height="24"><div xmlns="http://www.w3.org/1999/xhtml" style="display: table-cell; white-space: nowrap; line-height: 1.5; max-width: 113px; text-align: center;"><span class="nodeLabel markdown-node-label" style=""><p>Customer</p></span></div></foreignObject></g></g><g class="members-group text" transform="translate(-57.6640625, -24)"><g class="label" style="" transform="translate(0,-12)"><foreignObject width="79.671875" height="24"><div xmlns="http://www.w3.org/1999/xhtml" style="display: table-cell; white-space: nowrap; line-height: 1.5; max-width: 123px; text-align: center;"><span class="nodeLabel markdown-node-label" style=""><p>customerId</p></span></div></foreignObject></g><g class="label" style="" transform="translate(0,12)"><foreignObject width="39.15625" height="24"><div xmlns="http://www.w3.org/1999/xhtml" style="display: table-cell; white-space: nowrap; line-height: 1.5; max-width: 85px; text-align: center;"><span class="nodeLabel markdown-node-label" style=""><p>name</p></span></div></foreignObject></g><g class="label" style="" transform="translate(0,36)"><foreignObject width="39.703125" height="24"><div xmlns="http://www.w3.org/1999/xhtml" style="display: table-cell; white-space: nowrap; line-height: 1.5; max-width: 86px; text-align: center;"><span class="nodeLabel markdown-node-label" style=""><p>email</p></span></div></foreignObject></g><g class="label" style="" transform="translate(0,60)"><foreignObject width="54.140625" height="24"><div xmlns="http://www.w3.org/1999/xhtml" style="display: table-cell; white-space: nowrap; line-height: 1.5; max-width: 98px; text-align: center;"><span class="nodeLabel markdown-node-label" style=""><p>address</p></span></div></foreignObject></g></g><g class="methods-group text" transform="translate(-57.6640625, 96)"/><g class="divider" style=""><path d="M-69.6640625 -48 C-33.11122816599766 -47.99973764927696, 3.4416061680046823 -47.99947529855392, 69.6640625 -47.999 M-69.6640625 -48 C-22.835874647694126 -47.99966389996383, 23.992313204611747 -47.999327799927656, 69.6640625 -47.999" stroke="#9370DB" stroke-width="1.3" fill="none" stroke-dasharray="0 0" style=""/></g><g class="divider" style=""><path d="M-69.6640625 72 C-33.736998937288035 72.00025785937737, 2.190064625423929 72.00051571875474, 69.6640625 72.001 M-69.6640625 72 C-27.9671846639457 72.00029927107565, 13.729693172108597 72.0005985421513, 69.6640625 72.001" stroke="#9370DB" stroke-width="1.3" fill="none" stroke-dasharray="0 0" style=""/></g></g><g class="node default" id="my-svg-classId-Order-1" data-look="classic" transform="translate(301.328125, 104)"><g class="basic label-container outer-path"><path d="M-58.828125 -84 L58.828125 -84 L58.828125 84 L-58.828125 84" stroke="none" stroke-width="0" fill="#ECECFF" style=""/><path d="M-58.828125 -84 C-17.948774818542965 -84, 22.93057536291407 -84, 58.828125 -84 M-58.828125 -84 C-20.599633398442542 -84, 17.628858203114916 -84, 58.828125 -84 M58.828125 -84 C58.828125 -24.761368029304194, 58.828125 34.47726394139161, 58.828125 84 M58.828125 -84 C58.828125 -25.05806043819011, 58.828125 33.88387912361978, 58.828125 84 M58.828125 84 C23.620948563935592 84, -11.586227872128816 84, -58.828125 84 M58.828125 84 C20.23456648811196 84, -18.358992023776082 84, -58.828125 84 M-58.828125 84 C-58.828125 19.694968873721535, -58.828125 -44.61006225255693, -58.828125 -84 M-58.828125 84 C-58.828125 40.64846571255151, -58.828125 -2.7030685748969745, -58.828125 -84" stroke="#9370DB" stroke-width="1.3" fill="none" stroke-dasharray="0 0" style=""/></g><g class="annotation-group text" transform="translate(0, -60)"/><g class="label-group text" transform="translate(-21.703125, -60)"><g class="label" style="font-weight: bolder" transform="translate(0,-12)"><foreignObject width="43.40625" height="24"><div xmlns="http://www.w3.org/1999/xhtml" style="display: table-cell; white-space: nowrap; line-height: 1.5; max-width: 88px; text-align: center;"><span class="nodeLabel markdown-node-label" style=""><p>Order</p></span></div></foreignObject></g></g><g class="members-group text" transform="translate(-46.828125, -12)"><g class="label" style="" transform="translate(0,-12)"><foreignObject width="52.03125" height="24"><div xmlns="http://www.w3.org/1999/xhtml" style="display: table-cell; white-space: nowrap; line-height: 1.5; max-width: 98px; text-align: center;"><span class="nodeLabel markdown-node-label" style=""><p>orderId</p></span></div></foreignObject></g><g class="label" style="" transform="translate(0,12)"><foreignObject width="71.953125" height="24"><div xmlns="http://www.w3.org/1999/xhtml" style="display: table-cell; white-space: nowrap; line-height: 1.5; max-width: 114px; text-align: center;"><span class="nodeLabel markdown-node-label" style=""><p>orderDate</p></span></div></foreignObject></g><g class="label" style="" transform="translate(0,36)"><foreignObject width="42.796875" height="24"><div xmlns="http://www.w3.org/1999/xhtml" style="display: table-cell; white-space: nowrap; line-height: 1.5; max-width: 86px; text-align: center;"><span class="nodeLabel markdown-node-label" style=""><p>status</p></span></div></foreignObject></g></g><g class="methods-group text" transform="translate(-46.828125, 84)"/><g class="divider" style=""><path d="M-58.828125 -36 C-15.337024729672137 -35.99963035452625, 28.154075540655725 -35.999260709052514, 58.828125 -35.999 M-58.828125 -36 C-20.186878932759775 -35.99967157506663, 18.45436713448045 -35.99934315013326, 58.828125 -35.999" stroke="#9370DB" stroke-width="1.3" fill="none" stroke-dasharray="0 0" style=""/></g><g class="divider" style=""><path d="M-58.828125 60 C-22.741864711028484 60.00030670925079, 13.344395577943033 60.000613418501594, 58.828125 60.001 M-58.828125 60 C-12.687116771264662 60.00039216793182, 33.453891457470675 60.00078433586365, 58.828125 60.001" stroke="#9370DB" stroke-width="1.3" fill="none" stroke-dasharray="0 0" style=""/></g></g><g class="node default" id="my-svg-classId-OrderLine-2" data-look="classic" transform="translate(547.98046875, 104)"><g class="basic label-container outer-path"><path d="M-62.91796875 -72 L62.91796875 -72 L62.91796875 72 L-62.91796875 72" stroke="none" stroke-width="0" fill="#ECECFF" style=""/><path d="M-62.91796875 -72 C-17.623595442426513 -72, 27.670777865146974 -72, 62.91796875 -72 M-62.91796875 -72 C-17.85101042998548 -72, 27.215947890029042 -72, 62.91796875 -72 M62.91796875 -72 C62.91796875 -33.16980509213355, 62.91796875 5.6603898157328985, 62.91796875 72 M62.91796875 -72 C62.91796875 -31.35532423938062, 62.91796875 9.289351521238757, 62.91796875 72 M62.91796875 72 C27.031228861933947 72, -8.855511026132106 72, -62.91796875 72 M62.91796875 72 C31.67207687326613 72, 0.42618499653225683 72, -62.91796875 72 M-62.91796875 72 C-62.91796875 28.69394310370602, -62.91796875 -14.612113792587962, -62.91796875 -72 M-62.91796875 72 C-62.91796875 17.43628947377205, -62.91796875 -37.1274210524559, -62.91796875 -72" stroke="#9370DB" stroke-width="1.3" fill="none" stroke-dasharray="0 0" style=""/></g><g class="annotation-group text" transform="translate(0, -48)"/><g class="label-group text" transform="translate(-37.8359375, -48)"><g class="label" style="font-weight: bolder" transform="translate(0,-12)"><foreignObject width="75.671875" height="24"><div xmlns="http://www.w3.org/1999/xhtml" style="display: table-cell; white-space: nowrap; line-height: 1.5; max-width: 117px; text-align: center;"><span class="nodeLabel markdown-node-label" style=""><p>OrderLine</p></span></div></foreignObject></g></g><g class="members-group text" transform="translate(-50.91796875, 0)"><g class="label" style="" transform="translate(0,-12)"><foreignObject width="59.953125" height="24"><div xmlns="http://www.w3.org/1999/xhtml" style="display: table-cell; white-space: nowrap; line-height: 1.5; max-width: 102px; text-align: center;"><span class="nodeLabel markdown-node-label" style=""><p>quantity</p></span></div></foreignObject></g><g class="label" style="" transform="translate(0,12)"><foreignObject width="64" height="24"><div xmlns="http://www.w3.org/1999/xhtml" style="display: table-cell; white-space: nowrap; line-height: 1.5; max-width: 108px; text-align: center;"><span class="nodeLabel markdown-node-label" style=""><p>unitPrice</p></span></div></foreignObject></g></g><g class="methods-group text" transform="translate(-50.91796875, 72)"/><g class="divider" style=""><path d="M-62.91796875 -24 C-32.8872447554687 -23.999761350178723, -2.8565207609374 -23.999522700357446, 62.91796875 -23.999 M-62.91796875 -24 C-23.099751572228215 -23.999683570385624, 16.71846560554357 -23.99936714077125, 62.91796875 -23.999" stroke="#9370DB" stroke-width="1.3" fill="none" stroke-dasharray="0 0" style=""/></g><g class="divider" style=""><path d="M-62.91796875 48 C-34.17826136058669 48.00022839029899, -5.43855397117337 48.00045678059798, 62.91796875 48.001 M-62.91796875 48 C-21.33801314138129 48.000330429894944, 20.241942467237422 48.00066085978989, 62.91796875 48.001" stroke="#9370DB" stroke-width="1.3" fill="none" stroke-dasharray="0 0" style=""/></g></g><g class="node default" id="my-svg-classId-Product-3" data-look="classic" transform="translate(784.078125, 104)"><g class="basic label-container outer-path"><path d="M-61.1484375 -84 L61.1484375 -84 L61.1484375 84 L-61.1484375 84" stroke="none" stroke-width="0" fill="#ECECFF" style=""/><path d="M-61.1484375 -84 C-24.969995471623037 -84, 11.208446556753927 -84, 61.1484375 -84 M-61.1484375 -84 C-35.28156641531595 -84, -9.414695330631908 -84, 61.1484375 -84 M61.1484375 -84 C61.1484375 -33.90812769325193, 61.1484375 16.183744613496145, 61.1484375 84 M61.1484375 -84 C61.1484375 -34.7136131780477, 61.1484375 14.572773643904597, 61.1484375 84 M61.1484375 84 C33.20915580729171 84, 5.269874114583409 84, -61.1484375 84 M61.1484375 84 C21.437740704078657 84, -18.272956091842687 84, -61.1484375 84 M-61.1484375 84 C-61.1484375 29.36960470958978, -61.1484375 -25.26079058082044, -61.1484375 -84 M-61.1484375 84 C-61.1484375 25.386829759486474, -61.1484375 -33.22634048102705, -61.1484375 -84" stroke="#9370DB" stroke-width="1.3" fill="none" stroke-dasharray="0 0" style=""/></g><g class="annotation-group text" transform="translate(0, -60)"/><g class="label-group text" transform="translate(-29.28125, -60)"><g class="label" style="font-weight: bolder" transform="translate(0,-12)"><foreignObject width="58.5625" height="24"><div xmlns="http://www.w3.org/1999/xhtml" style="display: table-cell; white-space: nowrap; line-height: 1.5; max-width: 100px; text-align: center;"><span class="nodeLabel markdown-node-label" style=""><p>Product</p></span></div></foreignObject></g></g><g class="members-group text" transform="translate(-49.1484375, -12)"><g class="label" style="" transform="translate(0,-12)"><foreignObject width="69.015625" height="24"><div xmlns="http://www.w3.org/1999/xhtml" style="display: table-cell; white-space: nowrap; line-height: 1.5; max-width: 114px; text-align: center;"><span class="nodeLabel markdown-node-label" style=""><p>productId</p></span></div></foreignObject></g><g class="label" style="" transform="translate(0,12)"><foreignObject width="39.15625" height="24"><div xmlns="http://www.w3.org/1999/xhtml" style="display: table-cell; white-space: nowrap; line-height: 1.5; max-width: 85px; text-align: center;"><span class="nodeLabel markdown-node-label" style=""><p>name</p></span></div></foreignObject></g><g class="label" style="" transform="translate(0,36)"><foreignObject width="36.34375" height="24"><div xmlns="http://www.w3.org/1999/xhtml" style="display: table-cell; white-space: nowrap; line-height: 1.5; max-width: 83px; text-align: center;"><span class="nodeLabel markdown-node-label" style=""><p>price</p></span></div></foreignObject></g></g><g class="methods-group text" transform="translate(-49.1484375, 84)"/><g class="divider" style=""><path d="M-61.1484375 -36 C-36.68105769403002 -35.99979993454611, -12.213677888060033 -35.99959986909222, 61.1484375 -35.999 M-61.1484375 -36 C-32.43610267928919 -35.99976522429685, -3.723767858578384 -35.99953044859371, 61.1484375 -35.999" stroke="#9370DB" stroke-width="1.3" fill="none" stroke-dasharray="0 0" style=""/></g><g class="divider" style=""><path d="M-61.1484375 60 C-31.171078781818014 60.000245119580676, -1.1937200636360288 60.00049023916135, 61.1484375 60.001 M-61.1484375 60 C-19.432121782377862 60.00034110696383, 22.284193935244275 60.00068221392767, 61.1484375 60.001" stroke="#9370DB" stroke-width="1.3" fill="none" stroke-dasharray="0 0" style=""/></g></g></g></g></g><defs><filter id="my-svg-drop-shadow" height="130%" width="130%"><feDropShadow dx="4" dy="4" stdDeviation="0" flood-opacity="0.06" flood-color="#000000"/></filter></defs><defs><filter id="my-svg-drop-shadow-small" height="150%" width="150%"><feDropShadow dx="2" dy="2" stdDeviation="0" flood-opacity="0.06" flood-color="#000000"/></filter></defs></svg>